<?xml version="1.0" encoding="UTF-8" standalone="no"?>
<svg
   xmlns:dc="http://purl.org/dc/elements/1.1/"
   xmlns:cc="http://creativecommons.org/ns#"
   xmlns:rdf="http://www.w3.org/1999/02/22-rdf-syntax-ns#"
   xmlns:svg="http://www.w3.org/2000/svg"
   xmlns="http://www.w3.org/2000/svg"
   version="1.1"
   id="svg2"
   xml:space="preserve"
   width="180"
   height="53.333332"
   viewBox="0 0 179.99999 53.333332"><metadata
     id="metadata8"><rdf:RDF><cc:Work
         rdf:about=""><dc:format>image/svg+xml</dc:format><dc:type
           rdf:resource="http://purl.org/dc/dcmitype/StillImage" /><dc:title></dc:title></cc:Work></rdf:RDF></metadata><defs
     id="defs6"><clipPath
       clipPathUnits="userSpaceOnUse"
       id="clipPath58"><path
         d="m 370.133,257.262 -41.258,41.277 0,2.922 41.27,41.273 0.933,-0.531 48.887,-27.777 c 13.965,-7.934 13.965,-20.918 0,-28.852 l -48.887,-27.777 z"
         id="path56" /></clipPath><linearGradient
       x1="0"
       y1="0"
       x2="1"
       y2="0"
       gradientUnits="userSpaceOnUse"
       gradientTransform="matrix(-241.769,0,0,241.769,410.888,299.997)"
       spreadMethod="pad"
       id="linearGradient64"><stop
         style="stop-opacity:1;stop-color:#f9e106"
         offset="0"
         id="stop60" /><stop
         style="stop-opacity:1;stop-color:#f79011"
         offset="1"
         id="stop62" /></linearGradient><clipPath
       clipPathUnits="userSpaceOnUse"
       id="clipPath74"><path
         d="M 371.078,257.797 328.875,300 204.352,175.473 c 4.605,-4.871 12.203,-5.477 20.761,-0.61 l 145.965,82.934"
         id="path72" /></clipPath><linearGradient
       x1="0"
       y1="0"
       x2="1"
       y2="0"
       gradientUnits="userSpaceOnUse"
       gradientTransform="matrix(-227.394,-227.394,-227.394,227.394,348.146,277.068)"
       spreadMethod="pad"
       id="linearGradient80"><stop
         style="stop-opacity:1;stop-color:#ef2f41"
         offset="0"
         id="stop76" /><stop
         style="stop-opacity:1;stop-color:#c80d6b"
         offset="1"
         id="stop78" /></linearGradient><clipPath
       clipPathUnits="userSpaceOnUse"
       id="clipPath90"><path
         d="m 371.078,342.203 -145.965,82.938 c -8.558,4.863 -16.156,4.257 -20.761,-0.614 L 328.875,300 Z"
         id="path88" /></clipPath><linearGradient
       x1="0"
       y1="0"
       x2="1"
       y2="0"
       gradientUnits="userSpaceOnUse"
       gradientTransform="matrix(185.663,-185.663,-185.663,-185.663,119.737,551.342)"
       spreadMethod="pad"
       id="linearGradient98"><stop
         style="stop-opacity:1;stop-color:#39a36a"
         offset="0"
         id="stop92" /><stop
         style="stop-opacity:1;stop-color:#6cc858"
         offset="0.73696312"
         id="stop94" /><stop
         style="stop-opacity:1;stop-color:#6cc858"
         offset="1"
         id="stop96" /></linearGradient></defs><path
     d="m 173.33333,53.333332 -166.666663,0 C 3,53.333332 0,50.333332 0,46.666666 L 0,6.666667 C 0,3 3,0 6.666667,0 L 173.33333,0 C 177,0 180,3 180,6.666667 l 0,39.999999 c 0,3.666666 -3,6.666666 -6.66667,6.666666"
     style="fill:#100f0d;fill-opacity:1;fill-rule:nonzero;stroke:none"
     id="path16" /><path
     d="M 173.33333,0 6.666667,0 C 3,0 0,3 0,6.666667 l 0,39.999999 c 0,3.666666 3,6.666666 6.666667,6.666666 l 166.666663,0 c 3.66667,0 6.66667,-3 6.66667,-6.666666 L 180,6.666667 C 180,3 177,0 173.33333,0 Z m 0,1.066667 c 3.088,0 5.6,2.512 5.6,5.6 l 0,39.999999 c 0,3.087999 -2.512,5.600533 -5.6,5.600533 l -166.666663,0 c -3.088,0 -5.6,-2.512534 -5.6,-5.600533 l 0,-39.999999 c 0,-3.088 2.512,-5.6 5.6,-5.6 l 166.666663,0"
     style="fill:#a3a3a1;fill-opacity:1;fill-rule:nonzero;stroke:none"
     id="path18" /><path
     d="m 63.224532,13.657866 c 0,1.117067 -0.3308,2.006667 -0.993334,2.670267 C 61.478665,17.1172 60.497865,17.512 59.292132,17.512 c -1.154667,0 -2.1364,-0.4 -2.943733,-1.201067 -0.8088,-0.800533 -1.2124,-1.7932 -1.2124,-2.9776 0,-1.184933 0.4036,-2.177067 1.2124,-2.978133 0.807333,-0.800534 1.789066,-1.201067 2.943733,-1.201067 0.572933,0 1.121466,0.112 1.642266,0.335467 0.5208,0.224 0.938534,0.521333 1.251067,0.893733 l -0.7032,0.7036 c -0.5296,-0.6328 -1.2588,-0.948933 -2.190133,-0.948933 -0.842133,0 -1.570267,0.295866 -2.1848,0.888 -0.614667,0.5928 -0.921867,1.361466 -0.921867,2.307333 0,0.945867 0.3072,1.714533 0.921867,2.307333 0.614533,0.592134 1.342667,0.888 2.1848,0.888 0.893333,0 1.638133,-0.297466 2.2344,-0.8932 0.387066,-0.388133 0.610933,-0.9276 0.6708,-1.6204 l -2.9052,0 0,-0.960933 3.876666,0 c 0.03747,0.208933 0.05573,0.409467 0.05573,0.603733"
     style="fill:#ffffff;fill-opacity:1;fill-rule:nonzero;stroke:none"
     id="path20" /><path
     d="m 63.224532,13.657866 -0.133334,0 c -0.0011,1.0916 -0.319866,1.939467 -0.954266,2.576 l -0.0015,0.0011 -5.33e-4,0.0011 c -0.728667,0.761866 -1.6652,1.141066 -2.8428,1.142666 -1.123867,-0.0016 -2.064533,-0.384933 -2.85,-1.162 -0.783733,-0.778666 -1.171333,-1.7292 -1.1728,-2.883333 0.0015,-1.154667 0.389067,-2.104667 1.1728,-2.8828 0.785467,-0.7776 1.726133,-1.161467 2.85,-1.163067 0.555733,0 1.084933,0.1084 1.5896,0.324534 0.5052,0.217733 0.904266,0.503066 1.2016,0.857333 l 0.102133,-0.086 -0.09427,-0.09427 -0.7032,0.704134 0.09427,0.09373 0.102667,-0.08533 c -0.554267,-0.664134 -1.332267,-0.998934 -2.2928,-0.996934 -0.873333,-0.0011 -1.6416,0.310934 -2.277067,0.9256 -0.6416,0.616667 -0.964,1.428534 -0.962933,2.403067 -0.0011,0.974533 0.321333,1.7864 0.962933,2.403067 0.635467,0.614666 1.403734,0.926666 2.277067,0.9256 0.922933,0.0016 1.709466,-0.311467 2.328666,-0.932267 l 0,0 c 0.4136,-0.414667 0.648,-0.989067 0.709467,-1.7032 l 0.0124,-0.1448 -2.9172,0 0,-0.694267 3.743333,0 0,-0.133333 -0.131333,0.02347 c 0.03653,0.202133 0.05373,0.394266 0.05373,0.580266 l 0.133334,0 0.133333,0 c 0,-0.202666 -0.0188,-0.410933 -0.05787,-0.6276 l -0.01973,-0.109466 -4.121466,0 0,1.094266 0,0.133334 3.038533,0 0,-0.133334 -0.1328,-0.01147 c -0.0588,0.670933 -0.2724,1.176133 -0.632267,1.5376 l 0,0 c -0.572933,0.5708 -1.276,0.852533 -2.140133,0.854133 -0.810933,-0.0011 -1.498933,-0.280267 -2.092133,-0.850533 -0.587467,-0.568267 -0.879734,-1.293734 -0.8812,-2.211467 0.0015,-0.917733 0.293733,-1.6432 0.8812,-2.211467 0.5932,-0.570266 1.2812,-0.849466 2.092133,-0.850533 0.9016,0.0021 1.5824,0.3 2.088133,0.9016 l 0.09373,0.111467 0.805734,-0.8068 0.0864,-0.0864 -0.07867,-0.09333 c -0.3276,-0.390533 -0.764,-0.700533 -1.300533,-0.930666 -0.537467,-0.2308 -1.104667,-0.3464 -1.6948,-0.3464 -1.185333,-0.0011 -2.208267,0.4156 -3.038,1.240133 -0.8328,0.822933 -1.252533,1.857333 -1.251467,3.0724 -0.0011,1.214533 0.418667,2.249467 1.252,3.072933 0.8292,0.824 1.852134,1.240134 3.037467,1.239067 1.2344,0.0011 2.2584,-0.408933 3.035466,-1.225067 l -0.0964,-0.09213 0.09427,0.09427 c 0.690667,-0.690134 1.033333,-1.6224 1.0324,-2.764534 l -0.133333,0"
     style="fill:#ffffff;fill-opacity:1;fill-rule:nonzero;stroke:none"
     id="path22" /><path
     d="m 69.370265,10.316133 -3.6432,0 0,2.536533 3.285467,0 0,0.961334 -3.285467,0 0,2.536533 3.6432,0 0,0.9828 -4.670267,0 0,-8 4.670267,0 0,0.9828"
     style="fill:#ffffff;fill-opacity:1;fill-rule:nonzero;stroke:none"
     id="path24" /><path
     d="m 69.370265,10.316133 0,-0.133333 -3.776533,0 0,2.8032 3.285466,0 0,0.694266 -3.285466,4e-4 0,2.8032 3.6432,0 0,0.716134 -4.4036,0 0,-7.733334 4.4036,0 0,0.849467 0.133333,0 0,-0.133333 0,0.133333 0.133333,0 0,-0.9828 0,-0.133333 -4.936933,0 0,8.266666 4.936933,0 0,-1.116133 0,-0.133333 -3.6432,0 0,-2.269867 3.285467,0 0,-1.094667 0,-0.133333 -3.285467,0 0,-2.269867 3.6432,0 0,-0.133333 -0.133333,0"
     style="fill:#ffffff;fill-opacity:1;fill-rule:nonzero;stroke:none"
     id="path26" /><path
     d="m 73.705198,17.333333 -1.028666,0 0,-7.0172 -2.2344,0 0,-0.9828 5.497466,0 0,0.9828 -2.2344,0 0,7.0172"
     style="fill:#ffffff;fill-opacity:1;fill-rule:nonzero;stroke:none"
     id="path28" /><path
     d="m 73.705198,17.333333 0,-0.133333 -0.895333,0 0,-7.0172 -2.2344,0 0,-0.716134 5.2308,0 0,0.716134 -2.2344,0 0,7.150533 0.133333,0 0,-0.133333 0,0.133333 0.133333,0 0,-6.883867 2.2344,0 0,-1.116133 0,-0.133333 -5.764133,0 0,1.116133 0,0.133333 2.2344,0 0,7.0172 1.162,0 0.133333,0 0,-0.133333 -0.133333,0"
     style="fill:#ffffff;fill-opacity:1;fill-rule:nonzero;stroke:none"
     id="path30" /><path
     d="m 79.917198,17.333333 0,-8 1.0276,0 0,8 -1.0276,0"
     style="fill:#ffffff;fill-opacity:1;fill-rule:nonzero;stroke:none"
     id="path32" /><path
     d="m 79.917198,17.333333 0.133333,0 0,-7.866667 0.760934,0 0,7.733334 -0.894267,0 0,0.133333 0.133333,0 -0.133333,0 0,0.133333 1.0276,0 0.133333,0 0,-8.266666 -1.160933,0 -0.133333,0 0,8.266666 0.133333,0 0,-0.133333"
     style="fill:#ffffff;fill-opacity:1;fill-rule:nonzero;stroke:none"
     id="path34" /><path
     d="m 85.504665,17.333333 -1.028667,0 0,-7.0172 -2.234267,0 0,-0.9828 5.497336,0 0,0.9828 -2.234402,0 0,7.0172"
     style="fill:#ffffff;fill-opacity:1;fill-rule:nonzero;stroke:none"
     id="path36" /><path
     d="m 85.504665,17.333333 0,-0.133333 -0.895334,0 0,-7.0172 -2.234266,0 0,-0.716134 5.230662,0 0,0.716134 -2.234396,0 0,7.150533 0.133334,0 0,-0.133333 0,0.133333 0.133333,0 0,-6.883867 2.234399,0 0,-1.116133 0,-0.133333 -5.763999,0 0,1.116133 0,0.133333 2.234267,0 0,7.0172 1.162,0 0.133333,0 0,-0.133333 -0.133333,0"
     style="fill:#ffffff;fill-opacity:1;fill-rule:nonzero;stroke:none"
     id="path38" /><path
     d="m 93.039067,15.629733 c 0.59213,0.599467 1.31666,0.898933 2.17346,0.898933 0.8568,0 1.58174,-0.299466 2.17294,-0.898933 0.59266,-0.599467 0.8896,-1.365733 0.8896,-2.2964 0,-0.930667 -0.29694,-1.696933 -0.8896,-2.2964 -0.5912,-0.599467 -1.31614,-0.898933 -2.17294,-0.898933 -0.8568,0 -1.58133,0.299466 -2.17346,0.898933 -0.5912,0.599467 -0.888,1.365733 -0.888,2.2964 0,0.930667 0.2968,1.696933 0.888,2.2964 z m 5.1068,0.669733 c -0.78654,0.8088 -1.76467,1.212534 -2.93334,1.212534 -1.16986,0 -2.14746,-0.403734 -2.93226,-1.212534 -0.78707,-0.807866 -1.17867,-1.7968 -1.17867,-2.966133 0,-1.169333 0.3916,-2.1584 1.17867,-2.966133 0.7848,-0.808934 1.7624,-1.213067 2.93226,-1.213067 1.16254,0 2.138,0.406267 2.92814,1.218267 0.78906,0.812 1.18386,1.798933 1.18386,2.960933 0,1.169333 -0.39386,2.158267 -1.17866,2.966133"
     style="fill:#ffffff;fill-opacity:1;fill-rule:nonzero;stroke:none"
     id="path40" /><path
     d="m 93.039067,15.629733 -0.0948,0.09373 c 0.61413,0.623467 1.38026,0.940134 2.26826,0.938534 0.88747,0.0016 1.65467,-0.315067 2.26774,-0.938534 0.61813,-0.624 0.92906,-1.431333 0.92813,-2.390133 9.3e-4,-0.9588 -0.31,-1.766133 -0.92813,-2.390133 l 0,0 c -0.61307,-0.623467 -1.38027,-0.940134 -2.26774,-0.938534 -0.888,-0.0016 -1.65413,0.315067 -2.26826,0.938534 l 0,0 c -0.61667,0.624 -0.92814,1.431333 -0.92654,2.390133 -0.002,0.9588 0.30987,1.766133 0.92654,2.390133 l 0.0948,-0.09373 0.0948,-0.09373 c -0.5656,-0.5756 -0.8484,-1.2996 -0.84947,-2.202667 0.001,-0.903067 0.28387,-1.627067 0.84947,-2.202667 l 0,0 c 0.5708,-0.575466 1.25253,-0.857733 2.07866,-0.859333 0.82547,0.0016 1.5088,0.283867 2.07814,0.859333 l 0,0 c 0.56666,0.5756 0.84946,1.2996 0.85053,2.202667 -0.001,0.903067 -0.28387,1.627067 -0.85053,2.202667 -0.56934,0.575466 -1.25267,0.857733 -2.07814,0.859333 -0.82613,-0.0016 -1.50786,-0.283867 -2.07866,-0.859333 z m 5.1068,0.669733 -0.0953,-0.09267 c -0.76453,0.783333 -1.69946,1.170266 -2.838,1.171866 -1.13906,-0.0016 -2.074,-0.388533 -2.83706,-1.171866 l -0.004,-0.0041 0.004,0.0041 c -0.76294,-0.786 -1.13947,-1.733867 -1.14054,-2.873467 0.001,-1.1396 0.3776,-2.087467 1.14054,-2.873467 l 0,0 c 0.76306,-0.783333 1.698,-1.1708 2.83706,-1.1724 1.1312,0.0016 2.064,0.390667 2.8328,1.178134 0.7656,0.7896 1.14427,1.736 1.14587,2.867733 -0.002,1.1396 -0.3792,2.087467 -1.14067,2.873467 l 0.0953,0.09267 0.0959,0.09267 c 0.80827,-0.830133 1.21707,-1.859867 1.21614,-3.0588 9.3e-4,-1.192133 -0.40947,-2.219733 -1.22147,-3.0536 -0.8124,-0.837067 -1.83013,-1.2604 -3.02387,-1.258933 -1.2,-0.0015 -2.2208,0.419866 -3.02813,1.253733 l 0,-5.33e-4 c -0.80987,0.830666 -1.2172,1.8604 -1.21613,3.059333 -10e-4,1.198933 0.40626,2.228667 1.21613,3.059333 l 0.004,0.0037 -0.004,-0.0043 c 0.80733,0.833867 1.82813,1.254267 3.02813,1.2532 1.19947,0.0011 2.22027,-0.419333 3.0292,-1.2532 l -0.0959,-0.09267"
     style="fill:#ffffff;fill-opacity:1;fill-rule:nonzero;stroke:none"
     id="path42" /><path
     d="m 100.7672,17.333333 0,-8 1.25107,0 3.888,6.223467 0.0443,0 -0.0443,-1.541734 0,-4.681733 1.02866,0 0,8 -1.07293,0 -4.06773,-6.525067 -0.0443,0 0.0443,1.542267 0,4.9828 -1.02707,0"
     style="fill:#ffffff;fill-opacity:1;fill-rule:nonzero;stroke:none"
     id="path44" /><path
     d="m 100.7672,17.333333 0.13333,0 0,-7.866667 1.04374,0 3.888,6.223467 0.11826,0 0.13694,0 -0.0479,-1.677067 0,-4.5464 0.762,0 0,7.733334 -0.8656,0 -4.06773,-6.525067 -0.11827,0 -0.13693,0 0.0479,1.677733 0,4.847334 -0.89373,0 0,0.133333 0.13333,0 -0.13333,0 0,0.133333 1.02707,0 0.13333,0 0,-5.118266 -0.0443,-1.543734 -0.13333,0.0036 0,0.133334 0.0443,0 0,-0.133334 -0.11307,0.07093 4.1068,6.587466 1.14693,0 0.13334,0 0,-8.266666 -1.162,0 -0.13334,0 0,4.816666 0.0443,1.543734 0.13333,-0.0036 0,-0.133334 -0.0443,0 0,0.133334 0.11306,-0.0708 -3.9272,-6.286 -1.32493,0 -0.13333,0 0,8.266666 0.13333,0 0,-0.133333"
     style="fill:#ffffff;fill-opacity:1;fill-rule:nonzero;stroke:none"
     id="path46" /><path
     d="m 142.58133,39.999999 2.488,0 0,-16.668266 -2.488,0 z m 22.40934,-10.664 -2.852,7.226533 -0.0853,0 -2.96,-7.226533 -2.68,0 4.43867,10.1004 -2.53067,5.618267 2.596,0 6.84,-15.718667 z m -14.10934,8.7708 c -0.816,0 -1.952,-0.407333 -1.952,-1.4156 0,-1.286533 1.416,-1.779733 2.63734,-1.779733 1.09466,0 1.608,0.235866 2.27333,0.557866 -0.19333,1.543734 -1.52267,2.637467 -2.95867,2.637467 z m 0.3,-9.135466 c -1.80133,0 -3.66666,0.793733 -4.43866,2.552133 l 2.208,0.921867 c 0.472,-0.921867 1.35066,-1.2224 2.27333,-1.2224 1.28667,0 2.59467,0.7724 2.616,2.144799 l 0,0.171334 c -0.45067,-0.257333 -1.41467,-0.6432 -2.59467,-0.6432 -2.38,0 -4.804,1.307733 -4.804,3.752533 0,2.230267 1.952,3.6672 4.13867,3.6672 1.67333,0 2.59467,-0.750533 3.17467,-1.6296 l 0.0853,0 0,1.2864 2.40133,0 0,-6.390667 c 0,-2.958799 -2.208,-4.610399 -5.06,-4.610399 z m -15.376,2.393733 -3.53866,0 0,-5.713467 3.53866,0 c 1.86,0 2.916,1.54 2.916,2.856667 0,1.291733 -1.056,2.8568 -2.916,2.8568 z m -0.064,-8.033333 -5.96133,0 0,16.668266 2.48667,0 0,-6.315067 3.47466,0 c 2.75734,0 5.468,-1.996399 5.468,-5.176666 0,-3.180133 -2.71066,-5.176533 -5.468,-5.176533 z m -32.508,14.778133 c -1.7188,0 -3.15786,-1.439067 -3.15786,-3.4156 0,-1.997333 1.43906,-3.458267 3.15786,-3.458267 1.69694,0 3.02867,1.460934 3.02867,3.458267 0,1.976533 -1.33173,3.4156 -3.02867,3.4156 z m 2.8568,-7.840533 -0.086,0 c -0.55826,-0.665734 -1.6328,-1.2672 -2.98586,-1.2672 -2.83547,0 -5.434403,2.4916 -5.434403,5.692133 0,3.1792 2.598933,5.649466 5.434403,5.649466 1.35306,0 2.4276,-0.6016 2.98586,-1.288533 l 0.086,0 0,0.816133 c 0,2.169867 -1.15986,3.329734 -3.02866,3.329734 -1.52507,0 -2.47027,-1.095867 -2.85734,-2.019334 l -2.169203,0.902134 c 0.62294,1.5036 2.277073,3.351066 5.026543,3.351066 2.92133,0 5.3916,-1.7188 5.3916,-5.907333 l 0,-10.181733 -2.36294,0 z m 4.0812,9.730666 2.49174,0 0,-16.6688 -2.49174,0 z m 6.16507,-5.498933 c -0.0645,-2.1912 1.69693,-3.307867 2.96413,-3.307867 0.9888,0 1.82614,0.493734 2.1048,1.2032 z m 7.73293,-1.890133 c -0.472,-1.267734 -1.912,-3.6088 -4.8548,-3.6088 -2.92133,0 -5.3484,2.2984 -5.3484,5.670799 0,3.1792 2.40574,5.6708 5.6276,5.6708 2.5996,0 4.1036,-1.5896 4.72627,-2.513066 l -1.93333,-1.289067 c -0.644,0.945333 -1.52534,1.568267 -2.79294,1.568267 -1.2672,0 -2.1692,-0.580134 -2.74946,-1.718267 l 7.5824,-3.1364 z m -60.410932,-1.8688 0,2.405733 5.756667,0 c -0.171867,1.3532 -0.622933,2.3412 -1.3104,3.028666 -0.837467,0.838 -2.147867,1.761467 -4.446267,1.761467 -3.5444,0 -6.315199,-2.8568 -6.315199,-6.401066 0,-3.544267 2.770799,-6.401467 6.315199,-6.401467 1.911867,0 3.307734,0.752 4.338934,1.718667 l 1.696933,-1.6968 c -1.439067,-1.375067 -3.351067,-2.4276 -6.035867,-2.4276 -4.854799,0 -8.935999,3.952533 -8.935999,8.8072 0,4.854666 4.0812,8.806799 8.935999,8.806799 2.6208,0 4.5968,-0.8588 6.1432,-2.470266 1.5896,-1.5896 2.083867,-3.823467 2.083867,-5.6276 0,-0.558933 -0.0428,-1.074 -0.1292,-1.503733 z m 14.771867,7.367733 c -1.7188,0 -3.201067,-1.417734 -3.201067,-3.436934 0,-2.040666 1.482267,-3.436933 3.201067,-3.436933 1.718133,0 3.2004,1.396267 3.2004,3.436933 0,2.0192 -1.482267,3.436934 -3.2004,3.436934 z m 0,-9.107733 c -3.136534,0 -5.6928,2.384266 -5.6928,5.670799 0,3.265067 2.556266,5.6708 5.6928,5.6708 3.135866,0 5.692133,-2.405733 5.692133,-5.6708 0,-3.286533 -2.556267,-5.670799 -5.692133,-5.670799 z m 12.417602,9.107733 c -1.71814,0 -3.20054,-1.417734 -3.20054,-3.436934 0,-2.040666 1.4824,-3.436933 3.20054,-3.436933 1.71826,0 3.20053,1.396267 3.20053,3.436933 0,2.0192 -1.48227,3.436934 -3.20053,3.436934 z m 0,-9.107733 c -3.1364,0 -5.692136,2.384266 -5.692136,5.670799 0,3.265067 2.555736,5.6708 5.692136,5.6708 3.136,0 5.69226,-2.405733 5.69226,-5.6708 0,-3.286533 -2.55626,-5.670799 -5.69226,-5.670799"
     style="fill:#ffffff;fill-opacity:1;fill-rule:nonzero;stroke:none"
     id="path48" /><path
     d="m 13.9136,10.063066 c -0.388134,0.409867 -0.616667,1.046267 -0.616667,1.871867 l 0,29.463466 c 0,0.825067 0.228533,1.461467 0.616667,1.871867 l 0.0984,0.0964 16.504666,-16.5052 0,-0.1948 0,-0.1948 -16.504666,-16.5052 -0.0984,0.0964"
     style="fill:#72d0f5;fill-opacity:1;fill-rule:nonzero;stroke:none"
     id="path50" /><g
     transform="matrix(0.13333333,0,0,-0.13333333,-13.333333,66.666665)"
     id="g52"><g
       id="g54"
       clip-path="url(#clipPath58)"><path
         d="m 370.133,257.262 -41.258,41.277 0,2.922 41.27,41.273 0.933,-0.531 48.887,-27.777 c 13.965,-7.934 13.965,-20.918 0,-28.852 l -48.887,-27.777 -0.945,-0.535"
         style="fill:url(#linearGradient64);fill-opacity:1;fill-rule:nonzero;stroke:none"
         id="path66" /></g></g><g
     transform="matrix(0.13333333,0,0,-0.13333333,-13.333333,66.666665)"
     id="g68"><g
       id="g70"
       clip-path="url(#clipPath74)"><path
         d="M 371.078,257.797 328.875,300 204.352,175.473 c 4.605,-4.871 12.203,-5.477 20.761,-0.61 l 145.965,82.934"
         style="fill:url(#linearGradient80);fill-opacity:1;fill-rule:nonzero;stroke:none"
         id="path82" /></g></g><g
     transform="matrix(0.13333333,0,0,-0.13333333,-13.333333,66.666665)"
     id="g84"><g
       id="g86"
       clip-path="url(#clipPath90)"><path
         d="m 371.078,342.203 -145.965,82.938 c -8.558,4.863 -16.156,4.257 -20.761,-0.614 L 328.875,300 l 42.203,42.203"
         style="fill:url(#linearGradient98);fill-opacity:1;fill-rule:nonzero;stroke:none"
         id="path100" /></g></g></svg>